<?xml version="1.0" encoding="utf-8"?>
<!-- Generator: Adobe Illustrator 24.2.3, SVG Export Plug-In . SVG Version: 6.00 Build 0)  -->
<svg version="1.1" id="Layer_1" xmlns="http://www.w3.org/2000/svg" xmlns:xlink="http://www.w3.org/1999/xlink" x="0px" y="0px"
	 viewBox="0 0 1482 331" style="enable-background:new 0 0 1482 331;" xml:space="preserve">
<style type="text/css">
	.st0{fill:#1C1C1C;}
	.st1{fill:#FFFFFF;}
</style>
<g>
	<g>
		<path class="st0" d="M450,71.1h29.9v131.6h79v26H450V71.1z"/>
		<path class="st0" d="M578.4,62.6h28v26.6h-28V62.6z M578.4,107.9h28v120.8h-28V107.9z"/>
		<path class="st0" d="M622.5,107.9h29.4l19.5,54.4c2.8,7.8,7.8,25.5,10.8,36.7h1.1c2.8-10.6,7.3-27.8,10.6-36.7l19.3-54.4h28.5
			l-45,120.8h-29.4L622.5,107.9z"/>
		<path class="st0" d="M751.8,168.3c0-43.4,19.3-63.2,57.9-63.2c34.9,0,53.1,18.8,53.1,61.8v8.3h-82.2c0.7,22.7,8.7,34.2,29.4,34.2
			c14.2,0,25.3-7.3,25.3-23h27.6c0,30.8-23,45-53.1,45C770.8,231.4,751.8,211.7,751.8,168.3z M833.5,155.4c0-20.2-9.4-28-23.9-28
			c-18.1,0-26.6,9-28.7,28H833.5z"/>
		<path class="st0" d="M880.6,168.3c0-43.4,18.8-63.2,56.3-63.2c32.2,0,51.4,16.1,51.4,48h-28.5c0-16.8-7.3-25.3-23.4-25.3
			c-18.8,0-27.1,12.9-27.1,39v3c0,26,8,38.8,28.3,38.8c15.4,0,23.7-9,23.7-25.3h27.1c0,30.3-19.1,48-51.4,48
			C899,231.4,880.6,211.7,880.6,168.3z"/>
		<path class="st0" d="M1006.3,168.3c0-43.4,20.2-63.2,59.7-63.2c39.7,0,59.7,19.8,59.7,63.2c0,43.4-20,63.2-59.7,63.2
			C1026.5,231.4,1006.3,211.7,1006.3,168.3z M1096.7,169.9v-3.2c0-25.7-8.7-38.6-30.8-38.6s-30.8,12.9-30.8,38.6v3.2
			c0,26,8.7,38.6,30.8,38.6S1096.7,195.8,1096.7,169.9z"/>
		<path class="st0" d="M1149.6,107.9h23.4l2.3,16.1h1.6c7.6-11,19.1-18.8,34.9-18.8c14,0,25.5,5.3,31.7,18.8h1.6
			c7.6-10.8,20-18.8,36.3-18.8c21.4,0,37,10.8,37,40.7v82.9h-28v-77.2c0-16.5-7.6-21.8-18.8-21.8c-13.3,0-23.4,11.9-23.4,28.7v70.3
			h-28v-77.2c0-16.5-7.6-21.8-18.8-21.8c-13.3,0-23.7,11.9-23.7,28.7v70.3h-28V107.9z"/>
		<path class="st0" d="M1347.3,107.9h23.2l2.3,16.1h1.6c7.8-12.6,21.4-18.8,37-18.8c29.6,0,48,19.3,48,63.4
			c0,43.4-19.5,62.9-46.4,62.9c-16.5,0-28.9-5.5-36.3-16.8h-1.4v53.7h-28V107.9z M1430.5,170.1v-3.2c0-25.7-7.3-37.7-27.8-37.7
			c-19.1,0-27.3,13.3-27.3,37.7v2.8c0,24.1,8.3,37.7,27.3,37.7C1423.1,207.3,1430.5,195.4,1430.5,170.1z"/>
	</g>
	<g>
		<path class="st0" d="M88.4,11.5H52c-16.2,0-29.4,13.2-29.4,29.4v212.8v36.4c0,16.2,13.2,29.4,29.4,29.4h36.4h212.8
			c16.2,0,29.4-13.2,29.4-29.4v-36.4H88.4V11.5z"/>
		<rect x="264.7" y="108.4" class="st0" width="65.8" height="112.4"/>
		<path class="st0" d="M301.2,11.5h-36.4v65.8h65.8V40.9C330.6,24.7,317.4,11.5,301.2,11.5z"/>
		<rect x="121.3" y="11.5" class="st0" width="110.5" height="65.8"/>
		<path class="st0" d="M134.2,222.6h84.7c8.2,0,14.8-6.6,14.8-14.8v-84.7c0-8.2-6.6-14.8-14.8-14.8h-84.7c-8.2,0-14.8,6.6-14.8,14.8
			v84.7C119.4,216,126.1,222.6,134.2,222.6z"/>
	</g>
</g>
</svg>
